<svg xmlns="http://www.w3.org/2000/svg" viewBox="0 0 560 560" width="560" height="560">
  <defs><style>.bg{fill:#FAFAF7;}.mark{fill:#284139;}</style></defs>
  <rect class="bg" width="560" height="560"/>
  <rect class="mark" x="100" y="100" width="180" height="45" rx="8" ry="8"/>
  <rect class="mark" x="100" y="100" width="45" height="180" rx="8" ry="8"/>
  <rect class="mark" x="100" y="190" width="90" height="45" rx="8" ry="8"/>
  <rect class="mark" x="190" y="100" width="45" height="90" rx="8" ry="8"/>
  <rect class="mark" x="280" y="100" width="180" height="45" rx="8" ry="8"/>
  <rect class="mark" x="415" y="100" width="45" height="180" rx="8" ry="8"/>
  <rect class="mark" x="370" y="190" width="90" height="45" rx="8" ry="8"/>
  <rect class="mark" x="325" y="100" width="45" height="90" rx="8" ry="8"/>
  <rect class="mark" x="100" y="415" width="180" height="45" rx="8" ry="8"/>
  <rect class="mark" x="100" y="280" width="45" height="180" rx="8" ry="8"/>
  <rect class="mark" x="100" y="325" width="90" height="45" rx="8" ry="8"/>
  <rect class="mark" x="190" y="370" width="45" height="90" rx="8" ry="8"/>
  <rect class="mark" x="280" y="415" width="180" height="45" rx="8" ry="8"/>
  <rect class="mark" x="415" y="280" width="45" height="180" rx="8" ry="8"/>
  <rect class="mark" x="370" y="325" width="90" height="45" rx="8" ry="8"/>
  <rect class="mark" x="325" y="370" width="45" height="90" rx="8" ry="8"/>
</svg>
